<svg xmlns="http://www.w3.org/2000/svg" width="200" height="200" viewBox="0 0 200 200">
  <rect width="200" height="200" fill="#f8f9fa" rx="10" ry="10" />
  <text x="100" y="20" font-family="Arial" font-size="12" text-anchor="middle" fill="#555">QED: 0.78</text>
  
  <!-- Bonds -->
  <line x1="100" y1="70" x2="70" y2="90" stroke="#555" stroke-width="2" />
  <line x1="100" y1="70" x2="130" y2="90" stroke="#555" stroke-width="2" />
  <line x1="70" y1="90" x2="70" y2="120" stroke="#555" stroke-width="2" />
  <line x1="130" y1="90" x2="130" y2="120" stroke="#555" stroke-width="2" />
  <line x1="70" y1="120" x2="100" y2="140" stroke="#555" stroke-width="2" />
  <line x1="130" y1="120" x2="100" y2="140" stroke="#555" stroke-width="2" />
  <line x1="100" y1="70" x2="100" y2="40" stroke="#555" stroke-width="2" />
  
  <!-- Atoms -->
  <circle cx="100" cy="70" r="10" fill="#555555" />
  <text x="100" y="70" dy=".3em" font-family="Arial" font-size="10" text-anchor="middle" fill="white">C</text>
  
  <circle cx="70" cy="90" r="10" fill="#555555" />
  <text x="70" y="90" dy=".3em" font-family="Arial" font-size="10" text-anchor="middle" fill="white">C</text>
  
  <circle cx="130" cy="90" r="10" fill="#555555" />
  <text x="130" y="90" dy=".3em" font-family="Arial" font-size="10" text-anchor="middle" fill="white">C</text>
  
  <circle cx="70" cy="120" r="10" fill="#0000ff" />
  <text x="70" y="120" dy=".3em" font-family="Arial" font-size="10" text-anchor="middle" fill="white">N</text>
  
  <circle cx="130" cy="120" r="10" fill="#ff0000" />
  <text x="130" y="120" dy=".3em" font-family="Arial" font-size="10" text-anchor="middle" fill="white">O</text>
  
  <circle cx="100" cy="140" r="10" fill="#555555" />
  <text x="100" y="140" dy=".3em" font-family="Arial" font-size="10" text-anchor="middle" fill="white">C</text>
  
  <circle cx="100" cy="40" r="10" fill="#ffff00" />
  <text x="100" y="40" dy=".3em" font-family="Arial" font-size="10" text-anchor="middle" fill="white">S</text>
  
  <!-- Properties -->
  <text x="100" y="170" font-family="Arial" font-size="10" text-anchor="middle" fill="#333">
    LogP: 2.3 | BA: 85% | Sol: 75%
  </text>
  <text x="100" y="185" font-family="Arial" font-size="10" text-anchor="middle" fill="#333">
    Tox: 15% | Bio: 80%
  </text>
</svg> 