<svg xmlns="http://www.w3.org/2000/svg" width="400" height="300" viewBox="0 0 400 300">
  <rect width="400" height="300" fill="#f8f9fa" rx="10" ry="10" />
  <text x="200" y="30" font-family="Arial" font-size="16" text-anchor="middle" font-weight="bold">LogP Distribution</text>
  <line x1="50" y1="250" x2="350" y2="250" stroke="#333" stroke-width="2" />
  <line x1="50" y1="250" x2="50" y2="50" stroke="#333" stroke-width="2" />
  
  <!-- X-axis labels -->
  <text x="65" y="270" font-family="Arial" font-size="12" text-anchor="middle">-3</text>
  <text x="95" y="270" font-family="Arial" font-size="12" text-anchor="middle">-2</text>
  <text x="125" y="270" font-family="Arial" font-size="12" text-anchor="middle">-1</text>
  <text x="155" y="270" font-family="Arial" font-size="12" text-anchor="middle">0</text>
  <text x="185" y="270" font-family="Arial" font-size="12" text-anchor="middle">1</text>
  <text x="215" y="270" font-family="Arial" font-size="12" text-anchor="middle">2</text>
  <text x="245" y="270" font-family="Arial" font-size="12" text-anchor="middle">3</text>
  <text x="275" y="270" font-family="Arial" font-size="12" text-anchor="middle">4</text>
  <text x="305" y="270" font-family="Arial" font-size="12" text-anchor="middle">5</text>
  <text x="335" y="270" font-family="Arial" font-size="12" text-anchor="middle">6</text>
  
  <!-- Y-axis -->
  <text x="30" y="150" font-family="Arial" font-size="12" text-anchor="middle" transform="rotate(-90, 30, 150)">Count</text>
  
  <!-- Bars -->
  <rect x="50" y="240" width="25" height="10" fill="#e24a4a" />
  <rect x="80" y="230" width="25" height="20" fill="#e24a4a" />
  <rect x="110" y="210" width="25" height="40" fill="#e24a4a" />
  <rect x="140" y="190" width="25" height="60" fill="#e24a4a" />
  <rect x="170" y="120" width="25" height="130" fill="#e24a4a" />
  <rect x="200" y="70" width="25" height="180" fill="#e24a4a" />
  <rect x="230" y="100" width="25" height="150" fill="#e24a4a" />
  <rect x="260" y="170" width="25" height="80" fill="#e24a4a" />
  <rect x="290" y="210" width="25" height="40" fill="#e24a4a" />
  <rect x="320" y="235" width="25" height="15" fill="#e24a4a" />
  
  <!-- Count labels -->
  <text x="62.5" y="235" font-family="Arial" font-size="10" text-anchor="middle">1</text>
  <text x="92.5" y="225" font-family="Arial" font-size="10" text-anchor="middle">2</text>
  <text x="122.5" y="205" font-family="Arial" font-size="10" text-anchor="middle">4</text>
  <text x="152.5" y="185" font-family="Arial" font-size="10" text-anchor="middle">6</text>
  <text x="182.5" y="115" font-family="Arial" font-size="10" text-anchor="middle">13</text>
  <text x="212.5" y="65" font-family="Arial" font-size="10" text-anchor="middle">18</text>
  <text x="242.5" y="95" font-family="Arial" font-size="10" text-anchor="middle">15</text>
  <text x="272.5" y="165" font-family="Arial" font-size="10" text-anchor="middle">8</text>
  <text x="302.5" y="205" font-family="Arial" font-size="10" text-anchor="middle">4</text>
  <text x="332.5" y="230" font-family="Arial" font-size="10" text-anchor="middle">2</text>
</svg> 