<svg xmlns="http://www.w3.org/2000/svg" width="800" height="600" viewBox="0 0 800 600">
  <!-- Background -->
  <rect width="800" height="600" fill="#ffffff" />
  
  <!-- Chart area -->
  <rect x="80" y="50" width="680" height="480" fill="#f8f9fa" stroke="#dee2e6" stroke-width="1" />
  
  <!-- Chart title -->
  <text x="400" y="30" font-family="Arial" font-size="20" font-weight="bold" text-anchor="middle">QED Distribution</text>
  
  <!-- X axis -->
  <line x1="80" y1="530" x2="760" y2="530" stroke="#495057" stroke-width="2" />
  <!-- X axis title -->
  <text x="420" y="570" font-family="Arial" font-size="16" text-anchor="middle">QED (Quantitative Estimate of Drug-likeness)</text>
  
  <!-- X axis ticks and labels -->
  <line x1="90" y1="530" x2="90" y2="535" stroke="#495057" stroke-width="1" />
  <text x="90" y="550" font-family="Arial" font-size="12" text-anchor="middle">0.0</text>
  
  <line x1="200" y1="530" x2="200" y2="535" stroke="#495057" stroke-width="1" />
  <text x="200" y="550" font-family="Arial" font-size="12" text-anchor="middle">0.2</text>
  
  <line x1="310" y1="530" x2="310" y2="535" stroke="#495057" stroke-width="1" />
  <text x="310" y="550" font-family="Arial" font-size="12" text-anchor="middle">0.4</text>
  
  <line x1="420" y1="530" x2="420" y2="535" stroke="#495057" stroke-width="1" />
  <text x="420" y="550" font-family="Arial" font-size="12" text-anchor="middle">0.6</text>
  
  <line x1="530" y1="530" x2="530" y2="535" stroke="#495057" stroke-width="1" />
  <text x="530" y="550" font-family="Arial" font-size="12" text-anchor="middle">0.8</text>
  
  <line x1="640" y1="530" x2="640" y2="535" stroke="#495057" stroke-width="1" />
  <text x="640" y="550" font-family="Arial" font-size="12" text-anchor="middle">1.0</text>
  
  <line x1="750" y1="530" x2="750" y2="535" stroke="#495057" stroke-width="1" />
  <text x="750" y="550" font-family="Arial" font-size="12" text-anchor="middle">1.2</text>
  
  <!-- Y axis -->
  <line x1="80" y1="50" x2="80" y2="530" stroke="#495057" stroke-width="2" />
  <!-- Y axis title -->
  <text x="30" y="290" font-family="Arial" font-size="16" text-anchor="middle" transform="rotate(-90, 30, 290)">Frequency</text>
  
  <!-- Y axis ticks and labels -->
  <line x1="75" y1="530" x2="80" y2="530" stroke="#495057" stroke-width="1" />
  <text x="70" y="535" font-family="Arial" font-size="12" text-anchor="end">0</text>
  
  <line x1="75" y1="440" x2="80" y2="440" stroke="#495057" stroke-width="1" />
  <text x="70" y="445" font-family="Arial" font-size="12" text-anchor="end">5</text>
  
  <line x1="75" y1="350" x2="80" y2="350" stroke="#495057" stroke-width="1" />
  <text x="70" y="355" font-family="Arial" font-size="12" text-anchor="end">10</text>
  
  <line x1="75" y1="260" x2="80" y2="260" stroke="#495057" stroke-width="1" />
  <text x="70" y="265" font-family="Arial" font-size="12" text-anchor="end">15</text>
  
  <line x1="75" y1="170" x2="80" y2="170" stroke="#495057" stroke-width="1" />
  <text x="70" y="175" font-family="Arial" font-size="12" text-anchor="end">20</text>
  
  <line x1="75" y1="80" x2="80" y2="80" stroke="#495057" stroke-width="1" />
  <text x="70" y="85" font-family="Arial" font-size="12" text-anchor="end">25</text>
  
  <!-- Data - Histogram bars -->
  <rect x="90" y="520" width="50" height="10" fill="#1f77b4" opacity="0.7" />
  <rect x="145" y="500" width="50" height="30" fill="#1f77b4" opacity="0.7" />
  <rect x="200" y="490" width="50" height="40" fill="#1f77b4" opacity="0.7" />
  <rect x="255" y="460" width="50" height="70" fill="#1f77b4" opacity="0.7" />
  <rect x="310" y="380" width="50" height="150" fill="#1f77b4" opacity="0.7" />
  <rect x="365" y="280" width="50" height="250" fill="#1f77b4" opacity="0.7" />
  <rect x="420" y="200" width="50" height="330" fill="#1f77b4" opacity="0.7" />
  <rect x="475" y="230" width="50" height="300" fill="#1f77b4" opacity="0.7" />
  <rect x="530" y="310" width="50" height="220" fill="#1f77b4" opacity="0.7" />
  <rect x="585" y="410" width="50" height="120" fill="#1f77b4" opacity="0.7" />
  <rect x="640" y="480" width="50" height="50" fill="#1f77b4" opacity="0.7" />
  <rect x="695" y="510" width="50" height="20" fill="#1f77b4" opacity="0.7" />
  
  <!-- Mean line -->
  <line x1="480" y1="50" x2="480" y2="530" stroke="#ff7f0e" stroke-width="2" stroke-dasharray="5,5" />
  <text x="485" y="70" font-family="Arial" font-size="12" fill="#ff7f0e" font-weight="bold">Mean: 0.72</text>
  
  <!-- Stats box -->
  <rect x="600" y="70" width="150" height="80" fill="white" stroke="#dee2e6" stroke-width="1" rx="5" ry="5" />
  <text x="610" y="90" font-family="Arial" font-size="12" font-weight="bold">Statistics:</text>
  <text x="610" y="110" font-family="Arial" font-size="12">Mean: 0.72</text>
  <text x="610" y="130" font-family="Arial" font-size="12">Min: 0.21</text>
  <text x="610" y="150" font-family="Arial" font-size="12">Max: 0.91</text>
</svg> 